<svg width="23" height="21" viewBox="0 0 23 21" fill="none" xmlns="http://www.w3.org/2000/svg">
<path d="M22.375 3H21.75V18H22.375C22.6875 18 23 18.3125 23 18.625V19.875C23 20.2266 22.6875 20.5 22.375 20.5H13V17.375C13 17.0625 12.6875 16.75 12.375 16.75H11.125C10.7734 16.75 10.5 17.0625 10.5 17.375V20.5H1.125C0.773438 20.5 0.5 20.2266 0.5 19.875V18.625C0.5 18.3125 0.773438 18 1.125 18H1.71094V3H1.125C0.773438 3 0.5 2.72656 0.5 2.375V1.125C0.5 0.8125 0.773438 0.5 1.125 0.5H22.375C22.6875 0.5 23 0.8125 23 1.125V2.375C23 2.72656 22.6875 3 22.375 3ZM10.5 4.75781V6.28125C10.5 6.51562 10.7344 6.75 10.9688 6.75H12.4922C12.7266 6.75 13 6.51562 13 6.28125V4.75781C13 4.52344 12.7266 4.25 12.4922 4.25H10.9688C10.7344 4.25 10.5 4.52344 10.5 4.75781ZM10.5 8.50781V10.0312C10.5 10.2656 10.7344 10.5 10.9688 10.5H12.4922C12.7266 10.5 13 10.2656 13 10.0312V8.50781C13 8.27344 12.7266 8 12.4922 8H10.9688C10.7344 8 10.5 8.27344 10.5 8.50781ZM5.5 4.75781V6.28125C5.5 6.51562 5.73438 6.75 5.96875 6.75H7.49219C7.72656 6.75 8 6.51562 8 6.28125V4.75781C8 4.52344 7.72656 4.25 7.49219 4.25H5.96875C5.73438 4.25 5.5 4.52344 5.5 4.75781ZM7.49219 10.5C7.72656 10.5 8 10.2656 8 10.0312V8.50781C8 8.27344 7.72656 8 7.49219 8H5.96875C5.73438 8 5.5 8.27344 5.5 8.50781V10.0312C5.5 10.2656 5.73438 10.5 5.96875 10.5H7.49219ZM8 15.5H15.5C15.5 13.4297 13.8203 11.75 11.75 11.75C9.64062 11.75 8 13.4297 8 15.5ZM18 10.0312V8.50781C18 8.27344 17.7266 8 17.4922 8H15.9688C15.7344 8 15.5 8.27344 15.5 8.50781V10.0312C15.5 10.2656 15.7344 10.5 15.9688 10.5H17.4922C17.7266 10.5 18 10.2656 18 10.0312ZM18 6.28125V4.75781C18 4.52344 17.7266 4.25 17.4922 4.25H15.9688C15.7344 4.25 15.5 4.52344 15.5 4.75781V6.28125C15.5 6.51562 15.7344 6.75 15.9688 6.75H17.4922C17.7266 6.75 18 6.51562 18 6.28125Z" fill="#12B897"/>
</svg>
