<svg width="12" height="17" viewBox="0 0 12 17" fill="none" xmlns="http://www.w3.org/2000/svg">
<path d="M3.25 8.23438C3.65625 8.23438 4 8.57812 4 8.98438C4 9.42188 3.65625 9.73438 3.25 9.73438C2.8125 9.73438 2.5 9.42188 2.5 8.98438C2.5 8.57812 2.8125 8.23438 3.25 8.23438ZM3.25 11.2344C3.65625 11.2344 4 11.5781 4 11.9844C4 12.4219 3.65625 12.7344 3.25 12.7344C2.8125 12.7344 2.5 12.4219 2.5 11.9844C2.5 11.5781 2.8125 11.2344 3.25 11.2344ZM9 11.4844C9.25 11.4844 9.5 11.7344 9.5 11.9844C9.5 12.2656 9.25 12.4844 9 12.4844H5.5C5.21875 12.4844 5 12.2656 5 11.9844C5 11.7344 5.21875 11.4844 5.5 11.4844H9ZM10 2.48438C11.0938 2.48438 12 3.39062 12 4.48438V14.4844C12 15.6094 11.0938 16.4844 10 16.4844H2C0.875 16.4844 0 15.6094 0 14.4844V4.48438C0 3.39062 0.875 2.48438 2 2.48438H3.53125C3.78125 1.35938 4.78125 0.484375 6 0.484375C7.1875 0.484375 8.1875 1.35938 8.4375 2.48438H10ZM6 1.98438C5.5625 1.98438 5.25 2.32812 5.25 2.73438C5.25 3.17188 5.5625 3.48438 6 3.48438C6.40625 3.48438 6.75 3.17188 6.75 2.73438C6.75 2.32812 6.40625 1.98438 6 1.98438ZM10.5 14.4844V4.48438C10.5 4.23438 10.25 3.98438 10 3.98438H9.40625C9.46875 4.17188 9.5 4.32812 9.5 4.48438V4.98438C9.5 5.26562 9.25 5.48438 9 5.48438H3C2.71875 5.48438 2.5 5.26562 2.5 4.98438V4.48438C2.5 4.32812 2.5 4.17188 2.5625 3.98438H2C1.71875 3.98438 1.5 4.23438 1.5 4.48438V14.4844C1.5 14.7656 1.71875 14.9844 2 14.9844H10C10.25 14.9844 10.5 14.7656 10.5 14.4844ZM9 8.48438C9.25 8.48438 9.5 8.73438 9.5 8.98438C9.5 9.26562 9.25 9.48438 9 9.48438H5.5C5.21875 9.48438 5 9.26562 5 8.98438C5 8.73438 5.21875 8.48438 5.5 8.48438H9Z" fill="#12B897"/>
</svg>
