<svg width="20" height="17" viewBox="0 0 20 17" fill="none" xmlns="http://www.w3.org/2000/svg">
<path d="M5.40625 4.625C7.15625 2.875 10 2.875 11.75 4.625C13.4375 6.28125 13.5 8.96875 11.9688 10.75L11.7812 10.9375C11.5 11.25 11.0312 11.2812 10.7188 11.0312C10.4062 10.75 10.375 10.2812 10.6562 9.96875L10.8125 9.78125C11.875 8.59375 11.8125 6.8125 10.6875 5.6875C9.53125 4.5 7.625 4.5 6.4375 5.6875L2.90625 9.21875C1.75 10.4062 1.75 12.2812 2.90625 13.4688C4.03125 14.5625 5.8125 14.625 7 13.5938L7.1875 13.4375C7.5 13.1562 7.96875 13.1875 8.25 13.5C8.53125 13.8125 8.5 14.2812 8.1875 14.5625L8 14.7188C6.21875 16.2812 3.53125 16.1875 1.84375 14.5312C0.09375 12.7812 0.09375 9.90625 1.84375 8.15625L5.40625 4.625ZM14.5938 12.4062C12.8125 14.1562 9.96875 14.1562 8.21875 12.4062C6.53125 10.7188 6.46875 8.0625 8 6.28125L8.15625 6.09375C8.4375 5.78125 8.90625 5.75 9.21875 6.03125C9.53125 6.3125 9.5625 6.78125 9.28125 7.09375L9.15625 7.25C8.09375 8.4375 8.15625 10.2188 9.28125 11.3438C10.4375 12.5 12.3438 12.5 13.5312 11.3438L17.0625 7.8125C18.2188 6.625 18.2188 4.75 17.0625 3.5625C15.9375 2.46875 14.1562 2.40625 12.9688 3.4375L12.7812 3.59375C12.4688 3.875 12 3.84375 11.7188 3.53125C11.4375 3.21875 11.4688 2.75 11.7812 2.46875L11.9688 2.3125C13.75 0.75 16.4375 0.84375 18.125 2.5C19.875 4.25 19.875 7.09375 18.125 8.875L14.5938 12.4062Z" fill="#006699" fill-opacity="0.5"/>
</svg>
