<svg width="42" height="41" viewBox="0 0 42 41" fill="none" xmlns="http://www.w3.org/2000/svg">
<rect x="0.0078125" width="41.183" height="40.5065" rx="20.2532" fill="#12B897"/>
<path d="M15.7674 17.7864C15.8745 17.0766 16.0754 16.4538 16.37 15.9181C16.6647 15.3824 17.033 14.9371 17.4749 14.5822C17.9169 14.2273 18.4191 13.9628 18.9816 13.7887C19.5508 13.6079 20.1636 13.5175 20.8198 13.5175C21.5162 13.5175 22.139 13.6179 22.6881 13.8188C23.2439 14.013 23.7127 14.2809 24.0944 14.6224C24.476 14.9639 24.7673 15.3623 24.9682 15.8177C25.1758 16.273 25.2796 16.7619 25.2796 17.2842C25.2796 17.7463 25.2294 18.1547 25.1289 18.5096C25.0352 18.8579 24.8912 19.1625 24.697 19.4237C24.5095 19.6849 24.2752 19.9058 23.9939 20.0867C23.7194 20.2675 23.4013 20.4181 23.0397 20.5387C24.7138 21.0878 25.5508 22.2027 25.5508 23.8835C25.5508 24.6268 25.4135 25.2831 25.139 25.8523C24.8644 26.4148 24.4961 26.8869 24.0341 27.2686C23.572 27.6503 23.033 27.9382 22.4169 28.1324C21.8075 28.3199 21.168 28.4136 20.4984 28.4136C19.7886 28.4136 19.1624 28.3333 18.62 28.1726C18.0776 28.0119 17.5988 27.7708 17.1837 27.4494C16.7752 27.1279 16.4236 26.7261 16.129 26.244C15.8343 25.7552 15.5765 25.186 15.3555 24.5364L16.581 24.0342C16.9024 23.9003 17.2004 23.8634 17.4749 23.9237C17.7562 23.984 17.9571 24.1313 18.0776 24.3657C18.2116 24.6201 18.3522 24.8545 18.4995 25.0688C18.6535 25.2831 18.8243 25.4706 19.0118 25.6313C19.1993 25.7853 19.4102 25.9058 19.6446 25.9929C19.8857 26.0799 20.1602 26.1235 20.4682 26.1235C20.8566 26.1235 21.1948 26.0599 21.4828 25.9326C21.7707 25.8054 22.0118 25.6413 22.206 25.4404C22.4002 25.2328 22.5441 25.0018 22.6379 24.7474C22.7383 24.4862 22.7886 24.2284 22.7886 23.9739C22.7886 23.6391 22.7584 23.3378 22.6982 23.0699C22.6379 22.7954 22.4973 22.5643 22.2763 22.3768C22.062 22.1826 21.7406 22.0353 21.312 21.9349C20.8901 21.8277 20.3142 21.7741 19.5843 21.7741V19.8255C20.1937 19.8255 20.6926 19.7753 21.081 19.6748C21.4694 19.5744 21.774 19.4338 21.995 19.2529C22.216 19.0721 22.3667 18.8545 22.447 18.6C22.5341 18.3456 22.5776 18.0677 22.5776 17.7663C22.5776 17.1302 22.4102 16.6447 22.0754 16.3099C21.7473 15.9751 21.2785 15.8076 20.6691 15.8076C20.4013 15.8076 20.1535 15.8478 19.9258 15.9282C19.7049 16.0018 19.504 16.1056 19.3232 16.2396C19.1491 16.3735 18.9984 16.5309 18.8711 16.7117C18.7439 16.8925 18.6502 17.09 18.5899 17.3043C18.4627 17.6391 18.2986 17.8634 18.0977 17.9773C17.8968 18.0844 17.6055 18.1079 17.2238 18.0476L15.7674 17.7864Z" fill="white"/>
</svg>
