<svg width="251" height="263" viewBox="0 0 251 263" fill="none" xmlns="http://www.w3.org/2000/svg">
<g opacity="0.8" clip-path="url(#clip0_1343_1345)">
<path d="M97.2085 262.233C150.619 262.233 193.917 254.588 193.917 245.157C193.917 235.726 150.619 228.081 97.2085 228.081C43.7978 228.081 0.5 235.726 0.5 245.157C0.5 254.588 43.7978 262.233 97.2085 262.233Z" fill="#3F3D56"/>
<path d="M155.986 189.699C208.184 189.699 250.5 147.405 250.5 95.2325C250.5 43.0599 208.184 0.765625 155.986 0.765625C103.787 0.765625 61.4717 43.0599 61.4717 95.2325C61.4717 147.405 103.787 189.699 155.986 189.699Z" fill="#3F3D56"/>
<path opacity="0.05" d="M155.986 173.218C199.078 173.218 234.011 138.303 234.011 95.2325C234.011 52.1623 199.078 17.2471 155.986 17.2471C112.895 17.2471 77.9619 52.1623 77.9619 95.2325C77.9619 138.303 112.895 173.218 155.986 173.218Z" fill="black"/>
<path opacity="0.05" d="M155.986 159.148C191.303 159.148 219.934 130.532 219.934 95.2323C219.934 59.9325 191.303 31.3164 155.986 31.3164C120.669 31.3164 92.0381 59.9325 92.0381 95.2323C92.0381 130.532 120.669 159.148 155.986 159.148Z" fill="black"/>
<path opacity="0.05" d="M155.986 141.059C181.308 141.059 201.836 120.542 201.836 95.2327C201.836 69.9235 181.308 49.4062 155.986 49.4062C130.664 49.4062 110.137 69.9235 110.137 95.2327C110.137 120.542 130.664 141.059 155.986 141.059Z" fill="black"/>
<path d="M62.3092 103.687C62.3092 103.687 54.8785 124.592 58.1811 132.019C61.4836 139.446 66.7126 146.598 66.7126 146.598C66.7126 146.598 64.7861 105.062 62.3092 103.687Z" fill="#D0CDE1"/>
<path opacity="0.1" d="M62.3092 103.687C62.3092 103.687 54.8785 124.592 58.1811 132.019C61.4836 139.446 66.7126 146.598 66.7126 146.598C66.7126 146.598 64.7861 105.062 62.3092 103.687Z" fill="black"/>
<path d="M67.5376 152.1C67.5376 152.1 66.9872 157.326 66.712 157.601C66.4368 157.876 66.9872 158.427 66.712 159.252C66.4368 160.077 66.1616 161.177 66.712 161.452C67.2624 161.727 63.6847 185.934 63.6847 185.934C63.6847 185.934 54.8779 197.487 58.4556 215.642L59.5565 234.072C59.5565 234.072 68.088 234.622 68.088 231.596C68.088 231.596 67.5376 228.02 67.5376 226.37C67.5376 224.719 68.9137 224.719 68.088 223.894C67.2624 223.069 67.2624 222.519 67.2624 222.519C67.2624 222.519 68.6385 221.418 68.3633 221.143C68.088 220.868 70.8402 201.338 70.8402 201.338C70.8402 201.338 73.8675 198.312 73.8675 196.662V195.011C73.8675 195.011 75.2435 191.435 75.2435 191.16C75.2435 190.885 82.6742 174.106 82.6742 174.106L85.7016 186.209L89.0041 203.539C89.0041 203.539 90.6554 219.218 93.9579 225.27C93.9579 225.27 99.7373 245.075 99.7373 244.525C99.7373 243.975 109.37 242.599 109.094 240.123C108.819 237.648 103.315 202.989 103.315 202.989L104.691 151.55L67.5376 152.1Z" fill="#2F2E41"/>
<path d="M60.1075 232.696C60.1075 232.696 52.6768 247.275 57.6306 247.825C62.5844 248.376 64.5109 248.376 66.7126 246.175C67.9162 244.972 70.3537 243.358 72.3162 242.142C73.4791 241.433 74.4184 240.41 75.0266 239.192C75.6348 237.974 75.8872 236.609 75.7548 235.254C75.6096 233.908 75.1065 232.8 73.8681 232.696C70.5655 232.421 66.7126 229.396 66.7126 229.396L60.1075 232.696Z" fill="#2F2E41"/>
<path d="M101.113 243.424C101.113 243.424 93.6827 258.003 98.6365 258.553C103.59 259.103 105.517 259.103 107.718 256.903C108.922 255.699 111.36 254.085 113.322 252.869C114.485 252.16 115.424 251.138 116.032 249.92C116.641 248.702 116.893 247.337 116.761 245.982C116.615 244.636 116.112 243.527 114.874 243.424C111.571 243.149 107.718 240.123 107.718 240.123L101.113 243.424Z" fill="#2F2E41"/>
<path d="M93.2602 79.8283C99.6495 79.8283 104.829 74.6513 104.829 68.2652C104.829 61.8791 99.6495 56.7021 93.2602 56.7021C86.8709 56.7021 81.6914 61.8791 81.6914 68.2652C81.6914 74.6513 86.8709 79.8283 93.2602 79.8283Z" fill="#FFB8B8"/>
<path d="M85.823 72.0645C85.823 72.0645 77.5595 87.2616 76.8984 87.2616C76.2374 87.2616 91.7727 92.2172 91.7727 92.2172C91.7727 92.2172 96.0697 77.6808 96.7307 76.3593L85.823 72.0645Z" fill="#FFB8B8"/>
<path d="M98.4995 88.6952C98.4995 88.6952 81.9868 79.6178 80.3355 79.8928C78.6843 80.1679 61.0708 95.572 61.346 101.899C61.6212 108.225 63.8229 118.678 63.8229 118.678C63.8229 118.678 64.6485 147.836 66.2998 148.111C67.951 148.386 66.0246 153.337 66.575 153.337C67.1254 153.337 105.105 153.337 105.38 152.512C105.655 151.687 98.4995 88.6952 98.4995 88.6952Z" fill="#D0CDE1"/>
<path d="M107.719 154.025C107.719 154.025 112.948 169.98 108.545 169.43C104.141 168.879 102.215 155.676 102.215 155.676L107.719 154.025Z" fill="#FFB8B8"/>
<path d="M93.6834 87.7322C93.6834 87.7322 83.5006 89.9328 85.1518 103.686C86.8031 117.44 89.8304 131.194 89.8304 131.194L100.013 153.475L101.114 157.601L108.545 155.675L103.041 123.767C103.041 123.767 101.114 89.6577 98.6372 88.5574C97.0752 87.8919 95.3768 87.609 93.6834 87.7322Z" fill="#D0CDE1"/>
<path opacity="0.1" d="M87.4902 130.781L100.15 153.337L89.484 129.569L87.4902 130.781Z" fill="black"/>
<path d="M104.778 64.8604L104.816 63.9768L106.574 64.4143C106.556 64.1306 106.475 63.8544 106.339 63.6047C106.203 63.3551 106.015 63.1379 105.786 62.9682L107.66 62.8635C106.088 60.6309 104.079 58.7398 101.756 57.3046C99.4325 55.8694 96.842 54.9198 94.1411 54.5131C90.0891 53.9261 85.5773 54.7755 82.7988 57.7812C81.451 59.2391 80.6042 61.093 80.0018 62.9845C78.8923 66.4681 78.6663 70.6207 80.9798 73.4524C83.331 76.3303 87.4381 76.8941 91.1384 77.2502C92.4403 77.3755 93.8048 77.4922 95.0113 76.9872C95.1455 75.6041 94.9684 74.2084 94.4928 72.9025C94.2947 72.4983 94.2001 72.0512 94.2173 71.6014C94.3818 70.5012 95.8502 70.224 96.9532 70.3726C98.0563 70.5213 99.3827 70.7487 100.107 69.9044C100.607 69.3229 100.577 68.476 100.643 67.7125C100.824 65.634 104.759 65.2961 104.778 64.8604Z" fill="#2F2E41"/>
<path d="M175.735 247.507C183.18 247.507 189.215 241.475 189.215 234.034C189.215 226.594 183.18 220.562 175.735 220.562C168.291 220.562 162.256 226.594 162.256 234.034C162.256 241.475 168.291 247.507 175.735 247.507Z" fill="#12B897"/>
<path d="M17.4279 242.807C24.8725 242.807 30.9075 236.775 30.9075 229.334C30.9075 221.893 24.8725 215.861 17.4279 215.861C9.98328 215.861 3.94824 221.893 3.94824 229.334C3.94824 236.775 9.98328 242.807 17.4279 242.807Z" fill="#12B897"/>
<path d="M17.4278 221.188C22.7949 221.188 27.1457 216.839 27.1457 211.475C27.1457 206.11 22.7949 201.762 17.4278 201.762C12.0608 201.762 7.70996 206.11 7.70996 211.475C7.70996 216.839 12.0608 221.188 17.4278 221.188Z" fill="#12B897"/>
<path d="M17.4278 203.329C21.2367 203.329 24.3244 200.243 24.3244 196.436C24.3244 192.629 21.2367 189.543 17.4278 189.543C13.6189 189.543 10.5312 192.629 10.5312 196.436C10.5312 200.243 13.6189 203.329 17.4278 203.329Z" fill="#12B897"/>
</g>
<defs>
<clipPath id="clip0_1343_1345">
<rect width="250" height="261.468" fill="white" transform="translate(0.5 0.765625)"/>
</clipPath>
</defs>
</svg>
