<svg width="23" height="20" viewBox="0 0 23 20" fill="none" xmlns="http://www.w3.org/2000/svg">
<rect width="22.6875" height="20" rx="3.72308" fill="#12B897"/>
<path d="M16.4437 8.51923C16.9382 8.51923 17.3745 8.95553 17.3745 9.45V10.3808C17.3745 10.9043 16.9382 11.3115 16.4437 11.3115H12.2553V15.5C12.2553 16.0236 11.819 16.4308 11.3245 16.4308H10.3937C9.87019 16.4308 9.46298 16.0236 9.46298 15.5V11.3115H5.27452C4.75096 11.3115 4.34375 10.9043 4.34375 10.3808V9.45C4.34375 8.95553 4.75096 8.51923 5.27452 8.51923H9.46298V4.33077C9.46298 3.8363 9.87019 3.4 10.3937 3.4H11.3245C11.819 3.4 12.2553 3.8363 12.2553 4.33077V8.51923H16.4437Z" fill="white"/>
</svg>
